<?xml version="1.0" standalone="no"?>
<!DOCTYPE svg PUBLIC "-//W3C//DTD SVG 20010904//EN"
 "http://www.w3.org/TR/2001/REC-SVG-20010904/DTD/svg10.dtd">
<svg version="1.0" xmlns="http://www.w3.org/2000/svg"
 width="2720.000000pt" height="2720.000000pt" viewBox="0 0 2720.000000 2720.000000"
 preserveAspectRatio="xMidYMid meet">
<metadata>
Created by potrace 1.14, written by Peter Selinger 2001-2017
</metadata>
<g transform="translate(0.000000,2720.000000) scale(0.100000,-0.100000)"
fill="#000000" stroke="none">
<path d="M9600 17433 c-14 -2 -50 -11 -80 -20 -30 -8 -59 -16 -65 -17 -5 -2
-30 -9 -55 -16 -25 -7 -49 -14 -55 -15 -5 -2 -46 -13 -90 -25 -44 -12 -87 -24
-95 -25 -8 -2 -15 -4 -15 -5 0 -1 -7 -3 -15 -5 -8 -1 -40 -10 -71 -19 -31 -9
-65 -19 -75 -21 -11 -2 -53 -14 -94 -25 -41 -12 -82 -23 -90 -25 -8 -2 -15 -4
-15 -5 0 -1 -7 -3 -15 -5 -15 -3 -130 -35 -200 -56 -19 -6 -42 -12 -50 -13 -8
-2 -22 -5 -30 -9 -14 -5 -123 -34 -158 -42 -9 -2 -57 -16 -107 -30 -49 -14
-97 -27 -105 -29 -60 -15 -75 -30 -64 -61 5 -12 27 -15 103 -16 53 -1 103 -1
112 0 46 5 44 101 43 -2585 0 -2890 10 -2591 -93 -2620 -31 -8 -63 -18 -71
-21 -8 -3 -27 -7 -41 -9 -49 -6 -79 -23 -79 -43 0 -11 8 -22 18 -25 14 -4 252
-8 377 -5 61 1 108 1 130 -1 23 -1 768 -1 830 1 57 1 107 1 130 0 11 -1 115
-1 232 0 229 1 260 7 232 45 -8 10 -19 20 -25 21 -6 1 -23 5 -38 8 -14 3 -38
7 -53 10 -79 16 -123 37 -139 68 -16 30 -18 206 -19 2823 0 2319 -3 2794 -14
2808 -13 15 -38 18 -91 9z"/>
<path d="M11725 17417 c-44 -12 -82 -25 -83 -29 -2 -5 -7 -6 -11 -4 -4 3 -30
-2 -57 -10 -27 -9 -56 -17 -64 -19 -28 -7 -125 -33 -220 -60 -52 -15 -102 -28
-110 -30 -8 -2 -130 -36 -270 -75 -140 -40 -271 -76 -290 -81 -19 -5 -43 -12
-52 -14 -10 -3 -28 -8 -40 -11 -32 -7 -36 -9 -103 -29 -33 -10 -69 -19 -80
-21 -11 -1 -20 -3 -20 -4 0 -1 -10 -3 -23 -6 -29 -5 -52 -27 -52 -49 0 -22 11
-24 133 -28 82 -2 110 -6 117 -17 6 -9 9 -1013 7 -2570 l-2 -2555 -24 -27
c-24 -27 -51 -37 -146 -55 -16 -3 -38 -9 -47 -14 -10 -5 -18 -7 -18 -4 0 3 -9
1 -20 -5 -30 -16 -26 -47 8 -54 15 -3 451 -5 969 -4 728 0 945 3 953 12 12 16
-7 45 -35 51 -11 2 -59 14 -108 26 -134 33 -131 27 -135 319 -2 129 -3 240 -3
245 0 6 1 39 1 75 1 85 2 2121 1 2138 -2 21 -2 35 -1 102 1 100 2 843 1 858
-2 27 -2 131 0 242 1 36 1 71 0 78 -2 19 -2 32 -1 102 1 100 2 843 1 858 -2
27 -2 131 0 242 1 36 1 71 0 78 -2 22 -2 26 -1 258 1 123 -18 133 -175 91z"/>
<path d="M20320 16920 c-19 -5 -48 -10 -65 -13 -152 -25 -358 -162 -443 -295
-9 -15 -19 -29 -22 -32 -3 -3 -12 -18 -20 -35 -8 -16 -19 -37 -25 -45 -40 -55
-73 -226 -70 -361 5 -217 77 -386 229 -534 110 -107 253 -177 411 -201 64 -9
226 -10 285 -1 65 10 74 12 88 20 6 5 12 6 12 3 0 -7 99 28 150 54 197 99 370
328 396 525 3 21 7 42 10 46 5 9 5 185 0 219 -27 169 -86 292 -201 419 -36 40
-139 121 -154 121 -6 0 -11 3 -11 8 0 7 -54 34 -120 59 -32 12 -64 21 -145 38
-47 11 -266 14 -305 5z"/>
<path d="M3368 16015 c-2 -2 -21 -6 -43 -9 -50 -8 -114 -24 -140 -35 -64 -28
-155 -75 -180 -94 -68 -50 -199 -194 -259 -285 -84 -127 -191 -338 -221 -437
-13 -43 -17 -45 -100 -30 -219 39 -642 41 -870 5 -33 -5 -76 -12 -95 -14 -42
-6 -235 -53 -270 -65 -14 -5 -59 -21 -100 -36 -145 -53 -347 -161 -465 -250
-71 -53 -141 -119 -222 -207 -46 -51 -154 -214 -183 -278 -14 -30 -29 -58 -35
-62 -5 -4 -7 -8 -3 -8 4 0 3 -12 -3 -27 -12 -29 -34 -103 -49 -163 -24 -91
-33 -326 -17 -445 13 -101 79 -270 149 -380 47 -74 145 -189 208 -245 35 -30
69 -61 76 -67 7 -7 17 -13 23 -13 6 0 11 -4 11 -8 0 -7 123 -90 180 -121 48
-26 155 -79 195 -96 22 -9 49 -21 60 -26 34 -14 199 -67 225 -72 14 -3 56 -12
93 -21 38 -9 74 -13 79 -10 6 4 8 3 5 -3 -4 -6 -28 -13 -54 -16 -26 -4 -59 -9
-73 -11 -13 -3 -42 -8 -65 -12 -85 -12 -294 -75 -333 -100 -12 -8 -22 -12 -22
-9 0 7 -102 -49 -156 -86 -62 -42 -154 -129 -154 -145 0 -8 -4 -14 -10 -14
-10 0 -88 -154 -96 -192 -20 -93 -22 -124 -19 -208 2 -52 6 -109 9 -127 7 -41
57 -152 82 -183 58 -70 149 -138 245 -181 51 -24 61 -34 32 -35 -19 -1 -80
-11 -123 -19 -14 -3 -41 -8 -60 -11 -19 -3 -38 -8 -42 -11 -5 -2 -17 -6 -28
-9 -87 -19 -169 -49 -258 -94 -147 -75 -244 -199 -277 -356 -15 -75 -17 -196
-3 -256 5 -24 11 -47 12 -53 6 -30 31 -85 38 -85 4 0 8 -6 8 -13 0 -8 9 -22
20 -32 11 -10 20 -23 20 -29 0 -16 120 -130 172 -162 184 -117 487 -213 793
-250 22 -3 51 -7 65 -10 14 -2 54 -7 90 -9 36 -3 75 -7 88 -10 134 -26 944
-27 1132 0 14 2 48 6 75 9 28 3 60 8 71 10 12 3 38 7 58 10 19 3 55 10 78 15
24 6 54 12 68 15 90 18 281 81 368 121 29 14 55 25 59 25 8 0 185 101 200 115
36 31 43 35 43 28 0 -4 4 -3 8 2 4 6 30 28 57 50 91 73 248 247 244 271 0 4 4
10 9 13 10 6 48 77 80 151 28 64 62 208 67 282 2 35 5 65 6 68 1 3 1 9 0 14
-1 4 -3 50 -5 102 -3 51 -6 97 -9 101 -3 4 -8 26 -12 48 -4 22 -8 45 -9 52 -1
7 -5 16 -9 19 -4 4 -7 13 -7 19 0 7 -8 30 -17 51 -9 22 -17 41 -17 44 -1 6
-46 79 -61 99 -52 68 -194 191 -221 191 -8 0 -14 4 -14 9 0 18 -231 114 -365
151 -75 22 -112 31 -135 35 -44 8 -70 14 -78 18 -4 3 -29 8 -56 11 -27 4 -52
9 -56 11 -3 2 -24 6 -46 9 -22 4 -51 8 -64 11 -13 3 -42 7 -65 10 -22 3 -51 8
-65 11 -14 2 -41 6 -60 8 -19 3 -51 7 -70 10 -19 3 -62 8 -95 12 -33 3 -75 8
-92 10 -18 2 -48 6 -65 8 -46 5 -118 16 -148 21 -38 7 -93 16 -115 20 -70 11
-105 18 -140 27 -22 6 -49 13 -60 15 -71 12 -180 60 -223 98 -50 43 -69 129
-43 196 11 30 69 82 82 73 39 -23 533 -23 694 1 22 3 54 8 70 9 17 2 37 6 45
9 8 3 40 11 70 17 30 7 93 23 140 38 47 14 90 27 95 28 24 6 146 59 217 95
233 117 421 275 575 481 23 30 39 58 36 62 -4 3 -2 6 4 6 13 0 95 169 121 250
59 184 72 395 37 570 -7 32 -14 65 -19 88 -15 62 -71 195 -96 226 -8 10 -14
21 -13 25 2 5 -67 118 -89 146 -39 48 -57 68 -107 120 -72 75 -118 115 -130
115 -5 0 -11 3 -13 8 -5 12 -86 72 -97 72 -6 0 -11 5 -11 10 0 6 -7 10 -15 10
-8 0 -15 3 -15 8 0 4 -10 12 -23 18 -12 6 -68 34 -124 63 -56 28 -109 51 -117
51 -8 0 -16 4 -18 8 -1 4 -52 23 -113 41 -60 18 -116 34 -123 36 -8 3 -10 10
-4 22 46 96 69 135 96 165 31 35 96 84 96 73 0 -3 9 -1 20 5 11 6 46 11 78 11
109 1 174 -45 312 -221 76 -96 170 -195 220 -231 59 -42 119 -61 207 -64 263
-9 445 129 495 375 17 83 15 244 -5 336 -37 171 -148 321 -289 388 -40 19 -90
37 -112 40 -21 4 -43 9 -49 13 -11 7 -273 14 -279 8z m-1547 -976 c20 -10 55
-37 78 -60 40 -41 110 -138 107 -149 0 -3 8 -18 20 -35 39 -57 133 -290 149
-370 10 -52 16 -79 21 -86 4 -7 42 -182 49 -224 2 -11 6 -33 9 -50 4 -16 9
-46 11 -65 3 -19 8 -51 12 -70 3 -19 7 -53 9 -75 1 -22 3 -40 4 -40 4 0 19
-113 27 -210 8 -93 7 -503 -1 -565 -4 -30 -16 -91 -27 -135 -11 -44 -22 -84
-23 -90 -1 -5 -10 -27 -19 -49 -9 -21 -17 -40 -17 -43 0 -14 -64 -95 -90 -113
-61 -43 -139 -43 -201 2 -36 26 -119 109 -119 120 0 4 -7 13 -15 22 -15 14
-78 135 -110 211 -27 63 -82 232 -104 320 -21 83 -24 96 -41 180 -16 79 -20
98 -25 135 -3 19 -7 46 -10 60 -3 14 -7 39 -9 55 -3 17 -7 44 -10 60 -2 17 -7
59 -11 95 -4 36 -8 79 -11 95 -16 123 -22 444 -10 570 13 133 14 140 33 220 4
17 7 33 7 37 1 3 4 10 9 14 4 4 7 15 7 25 0 26 56 130 87 162 64 66 142 82
214 46z m-778 -3903 c26 -8 47 -12 47 -9 0 2 6 1 13 -4 6 -4 21 -9 32 -10 11
-2 61 -12 110 -23 50 -10 104 -21 120 -24 17 -3 46 -8 65 -11 176 -30 221 -37
335 -51 17 -2 44 -6 60 -9 17 -3 44 -7 60 -10 17 -3 40 -7 51 -9 71 -14 102
-19 122 -20 12 -1 22 -5 22 -9 0 -5 4 -6 9 -3 5 3 22 1 37 -4 16 -5 40 -11 54
-13 14 -2 32 -7 40 -10 8 -4 26 -9 40 -11 14 -3 25 -5 25 -6 0 -1 9 -3 20 -5
34 -6 100 -28 110 -37 5 -4 17 -8 26 -8 34 0 201 -93 253 -141 52 -48 106
-134 121 -194 5 -16 10 -37 12 -45 6 -23 6 -150 0 -190 -8 -56 -37 -132 -67
-175 -35 -50 -65 -85 -74 -85 -4 0 -15 -8 -26 -17 -24 -24 -115 -69 -165 -83
-22 -6 -47 -14 -55 -17 -8 -3 -22 -7 -30 -8 -25 -3 -114 -18 -130 -22 -8 -2
-81 -5 -162 -8 -81 -3 -151 -5 -155 -6 -4 -1 -10 -1 -13 0 -3 1 -31 4 -62 6
-90 6 -114 11 -268 49 -41 10 -152 61 -210 96 -88 52 -233 192 -275 267 -8 15
-24 42 -35 58 -11 17 -23 37 -26 45 -4 8 -17 38 -30 67 -13 28 -24 56 -24 62
0 6 -7 30 -14 53 -8 24 -18 59 -21 78 -3 19 -8 43 -11 53 -16 51 -25 323 -13
372 4 17 10 42 13 58 7 31 8 31 69 13z"/>
<path d="M21037 15160 c-37 -10 -67 -16 -67 -13 0 2 -8 -1 -18 -6 -11 -6 -30
-12 -43 -15 -13 -3 -71 -19 -129 -35 -58 -16 -179 -50 -270 -76 -91 -25 -173
-48 -182 -50 -10 -2 -133 -36 -275 -76 -142 -39 -265 -72 -273 -73 -8 0 -17
-3 -20 -7 -3 -3 -25 -10 -50 -16 -171 -42 -180 -46 -186 -70 -4 -13 -3 -27 0
-31 4 -3 51 -7 104 -8 114 -1 140 -8 147 -37 3 -12 4 -655 3 -1429 -3 -1404
-3 -1407 -24 -1434 -11 -15 -34 -32 -50 -36 -52 -15 -69 -20 -89 -23 -11 -2
-20 -4 -20 -5 0 -2 -36 -10 -58 -12 -27 -3 -48 -31 -37 -48 8 -12 46 -16 207
-18 109 -1 216 -2 238 -1 56 1 106 1 130 -1 23 -1 768 -1 830 1 57 1 107 1
130 0 54 -4 382 1 398 5 10 3 17 15 17 29 0 17 -7 25 -27 29 -16 4 -38 9 -50
11 -85 18 -118 28 -145 42 -61 30 -58 -71 -58 1738 0 1310 -3 1655 -12 1662
-25 19 -55 20 -121 3z"/>
<path d="M5788 15155 c-2 -2 -41 -6 -88 -9 -47 -3 -96 -8 -110 -10 -14 -2 -47
-7 -75 -11 -27 -4 -59 -9 -70 -11 -11 -2 -33 -7 -50 -10 -44 -9 -60 -12 -60
-14 0 -1 -11 -3 -25 -6 -47 -8 -225 -68 -232 -78 -4 -6 -10 -7 -14 -4 -4 4
-19 -1 -33 -11 -14 -10 -28 -18 -31 -18 -8 3 -122 -54 -152 -75 -16 -11 -28
-17 -28 -13 0 3 -10 -3 -22 -15 -12 -11 -26 -20 -30 -20 -14 0 -129 -92 -177
-141 -67 -67 -151 -178 -151 -198 0 -6 -3 -11 -8 -11 -4 0 -12 -12 -19 -27
-13 -29 -34 -84 -35 -93 -1 -3 -7 -23 -13 -45 -15 -50 -17 -150 -4 -234 30
-192 181 -332 384 -356 53 -6 172 -6 203 0 11 2 35 6 55 9 78 12 214 70 263
111 7 6 31 26 55 45 83 69 183 230 204 330 13 59 14 87 16 348 1 272 8 322 52
386 30 45 93 93 133 101 102 22 163 16 220 -21 81 -54 119 -132 123 -254 8
-243 5 -1420 -4 -1421 -11 -2 -12 -1 -52 5 -15 3 -57 8 -93 11 -36 4 -68 9
-72 12 -5 2 -8 1 -8 -4 0 -4 -73 -8 -163 -9 -172 -1 -319 -10 -447 -28 -87
-12 -115 -17 -188 -32 -42 -9 -84 -17 -92 -19 -36 -7 -137 -37 -155 -46 -12
-6 -27 -11 -35 -13 -8 -1 -33 -11 -55 -21 -22 -10 -42 -19 -46 -19 -16 -3
-170 -99 -204 -127 -190 -162 -282 -327 -311 -558 -10 -77 -6 -276 6 -276 1 0
3 -9 4 -20 15 -109 108 -277 207 -372 63 -60 113 -103 121 -103 4 0 13 -6 20
-12 7 -7 27 -20 43 -28 17 -8 32 -17 35 -21 8 -9 91 -45 157 -68 60 -21 79
-27 133 -37 14 -2 31 -7 38 -9 62 -22 364 -23 482 -1 137 25 143 26 180 38 19
7 37 12 40 13 3 0 10 3 15 6 6 4 22 9 36 13 37 8 183 77 187 88 2 4 8 8 13 8
20 0 143 90 207 151 37 35 68 64 71 64 2 0 5 -9 7 -19 2 -11 6 -31 10 -45 4
-14 8 -28 8 -31 4 -22 63 -103 100 -137 100 -93 238 -144 431 -159 261 -21
493 1 645 61 33 13 60 20 60 17 0 -4 4 -2 8 4 4 6 34 26 67 44 33 19 66 40 73
47 7 7 17 13 21 13 11 0 140 129 167 166 11 16 34 58 52 94 51 109 63 182 29
188 -15 3 -22 -10 -31 -60 -10 -57 -44 -117 -83 -142 -84 -55 -170 -38 -210
44 l-23 45 -1 1030 c0 607 -5 1059 -10 1100 -29 203 -112 401 -216 513 -14 15
-33 36 -42 47 -9 11 -41 40 -71 65 -30 25 -57 47 -60 50 -7 7 -43 29 -60 37
-8 4 -17 10 -20 13 -5 7 -120 62 -130 62 -3 0 -21 8 -40 18 -85 42 -301 91
-510 116 -47 6 -517 13 -522 9z m157 -1835 c0 -1 16 -3 35 -4 19 -1 49 -6 65
-9 l30 -7 -2 -636 c-2 -716 7 -643 -83 -685 -133 -63 -284 -15 -381 121 -22
30 -51 90 -55 113 -1 4 -3 9 -4 12 -1 3 -3 8 -5 13 -14 52 -19 75 -32 157 -8
51 -8 366 0 425 10 71 14 95 33 185 3 17 11 36 16 43 6 6 7 12 4 12 -15 0 70
144 104 176 39 37 100 78 100 68 0 -4 7 -1 15 6 8 6 18 9 23 7 4 -3 13 -2 19
1 10 6 118 8 118 2z"/>
<path d="M14038 15155 c-2 -1 -39 -5 -83 -9 -44 -4 -89 -9 -100 -11 -11 -3
-36 -7 -55 -10 -19 -2 -46 -7 -60 -9 -14 -3 -34 -8 -45 -10 -79 -16 -250 -69
-315 -98 -141 -62 -301 -152 -346 -193 -6 -5 -22 -17 -34 -25 -46 -31 -131
-110 -200 -186 -44 -47 -140 -171 -140 -179 0 -4 -11 -21 -25 -39 -14 -18 -25
-37 -25 -43 0 -6 -8 -21 -18 -34 -26 -34 -105 -219 -135 -314 -35 -112 -59
-221 -72 -330 -4 -27 -9 -63 -11 -80 -3 -16 -7 -86 -9 -155 -2 -69 -4 -129 -5
-135 -1 -5 -2 -12 -1 -15 1 -3 4 -39 6 -80 2 -41 7 -95 10 -120 3 -25 7 -67
10 -93 3 -27 7 -52 9 -56 3 -4 8 -21 11 -37 3 -16 12 -54 20 -84 9 -30 18 -63
20 -73 9 -38 65 -175 101 -247 37 -74 131 -225 156 -251 7 -8 26 -32 43 -54
48 -64 193 -203 279 -266 87 -66 188 -129 204 -129 6 0 12 -3 14 -8 4 -11 171
-86 246 -111 102 -35 221 -65 292 -76 14 -2 39 -6 55 -9 71 -12 189 -19 310
-19 109 1 250 8 250 13 0 1 21 3 47 5 27 2 57 7 69 10 12 4 31 8 42 10 58 7
230 57 292 86 30 13 69 27 79 27 5 0 12 4 15 9 3 4 33 21 66 38 63 31 259 159
292 191 11 11 42 39 69 64 66 61 161 171 215 250 114 165 212 416 234 595 11
90 18 203 16 246 -1 19 -30 34 -42 22 -4 -4 -10 -39 -13 -78 -8 -97 -23 -165
-52 -236 -36 -88 -65 -131 -149 -224 -34 -38 -150 -121 -212 -152 -51 -26
-134 -58 -140 -55 -2 1 -17 -5 -36 -13 -18 -7 -52 -16 -77 -20 -25 -4 -47 -8
-51 -10 -26 -17 -265 -24 -384 -12 -85 8 -246 46 -308 72 -20 8 -39 14 -41 13
-2 -2 -12 4 -22 12 -11 9 -32 22 -49 30 -104 49 -272 200 -352 316 -42 61
-126 228 -138 274 0 3 -8 28 -17 55 -15 47 -28 92 -34 124 -1 7 -7 34 -13 60
-6 25 -13 63 -16 85 -2 21 -7 46 -10 56 -4 12 0 19 12 22 10 2 482 3 1048 3
583 -1 1042 2 1057 7 41 14 56 59 53 158 -8 241 -63 476 -154 664 -21 44 -39
84 -40 89 0 4 -5 13 -11 20 -6 6 -30 42 -54 79 -25 37 -57 85 -73 105 -29 40
-180 194 -223 228 -100 79 -174 127 -290 185 -70 36 -280 114 -280 105 0 -2
-15 2 -34 10 -18 8 -36 12 -39 9 -3 -3 -12 -2 -19 2 -7 5 -20 9 -28 9 -21 2
-121 16 -145 22 -22 5 -411 13 -417 8z m87 -108 c44 -31 76 -66 111 -122 46
-74 110 -204 120 -244 2 -9 13 -50 24 -91 23 -83 36 -144 46 -217 3 -26 8 -57
10 -68 3 -11 7 -49 10 -85 3 -36 8 -81 10 -100 3 -30 15 -342 17 -440 2 -71
-12 -118 -36 -126 -21 -7 -741 -13 -763 -7 -15 5 -18 60 -18 348 1 230 6 357
19 475 15 126 15 126 36 230 6 30 12 60 13 65 1 6 5 16 9 23 5 6 6 16 2 21 -3
5 -1 12 4 15 4 3 11 18 14 33 3 16 11 42 18 58 7 17 13 32 13 35 2 9 65 115
78 130 27 31 92 73 132 85 50 15 91 10 131 -18z"/>
<path d="M18600 15153 c-46 -6 -155 -36 -164 -44 -6 -5 -18 -9 -28 -9 -10 0
-18 -4 -18 -10 0 -5 -3 -9 -8 -7 -11 3 -112 -46 -112 -55 0 -5 -6 -8 -12 -8
-7 0 -26 -11 -42 -25 -16 -14 -32 -25 -36 -25 -21 0 -185 -180 -239 -262 -34
-51 -67 -100 -74 -108 -6 -8 -11 -16 -10 -17 2 -3 -50 -125 -66 -153 -4 -8
-16 -43 -26 -77 -10 -35 -21 -63 -24 -63 -3 0 -6 184 -6 409 0 308 -3 413 -12
422 -22 22 -76 16 -255 -27 -10 -2 -28 -6 -39 -9 -12 -2 -80 -18 -153 -34 -72
-17 -142 -32 -156 -35 -25 -4 -93 -20 -245 -56 -44 -10 -91 -21 -105 -24 -14
-2 -65 -14 -115 -25 -111 -27 -124 -29 -155 -35 -14 -2 -45 -9 -70 -16 -25 -7
-54 -14 -65 -16 -20 -4 -85 -17 -95 -19 -3 -1 -31 -7 -62 -14 -32 -7 -60 -12
-63 -11 -14 2 -65 -32 -65 -45 0 -28 39 -40 100 -32 14 2 33 -1 43 -5 9 -5 17
-5 17 -1 0 7 44 9 60 3 3 -1 8 -2 12 -2 33 5 33 -6 34 -1457 1 -1527 3 -1475
-48 -1502 -19 -10 -102 -33 -168 -45 -30 -6 -70 -31 -70 -44 0 -18 38 -29 101
-29 35 0 71 -1 79 -1 26 -1 783 0 825 1 58 1 107 1 130 -1 24 -1 771 -1 830 1
84 2 150 2 160 -1 6 -2 23 0 38 5 21 5 27 13 25 28 -3 20 -26 31 -93 42 -41 7
-85 16 -144 29 -10 2 -34 7 -52 10 -71 12 -154 38 -172 54 -25 22 -60 92 -47
92 7 0 8 7 2 18 -8 18 -7 1824 2 1970 5 80 13 163 22 206 2 12 7 37 10 56 4
19 9 40 13 45 3 6 7 18 8 27 6 35 56 127 82 151 42 37 65 47 108 47 64 0 116
-41 127 -100 2 -14 7 -36 10 -50 3 -14 8 -79 11 -145 5 -103 12 -153 40 -279
6 -26 61 -142 77 -162 82 -101 184 -156 318 -170 54 -6 177 -5 215 1 173 28
329 122 431 260 67 90 116 229 132 375 8 79 8 296 -1 365 -4 28 -9 67 -11 87
-6 45 -33 141 -52 186 -37 86 -47 105 -81 149 -69 91 -152 149 -270 189 -64
22 -98 27 -193 29 -63 1 -126 0 -140 -2z"/>
<path d="M23258 15155 c-2 -1 -39 -5 -83 -9 -78 -5 -94 -7 -200 -22 -27 -4
-59 -9 -70 -10 -70 -9 -233 -55 -346 -99 -81 -31 -232 -101 -254 -117 -5 -5
-46 -31 -89 -60 -75 -49 -236 -193 -236 -211 0 -4 -11 -19 -24 -33 -31 -34
-92 -145 -112 -203 -25 -73 -31 -147 -23 -271 2 -36 33 -129 56 -168 66 -114
193 -192 338 -207 22 -2 50 -6 63 -9 12 -3 22 0 22 5 0 6 7 6 19 0 10 -6 20
-8 23 -6 3 3 31 8 63 11 33 3 62 7 65 9 4 2 21 7 39 10 78 14 209 83 281 148
32 28 110 124 129 157 75 129 84 180 86 490 3 298 7 338 40 395 50 86 118 126
224 131 125 7 213 -61 257 -196 8 -26 14 -1484 6 -1508 -3 -8 -11 -10 -21 -7
-33 14 -166 29 -216 25 -11 -1 -27 -1 -35 -1 -80 3 -282 -5 -375 -14 -178 -17
-203 -20 -255 -28 -14 -3 -45 -8 -70 -11 -25 -4 -53 -9 -62 -12 -9 -3 -26 -7
-37 -9 -12 -3 -31 -7 -42 -10 -89 -19 -258 -78 -296 -102 -12 -8 -24 -13 -26
-11 -3 2 -42 -21 -88 -51 -98 -63 -269 -229 -269 -261 0 -6 -4 -10 -8 -10 -9
0 -80 -143 -87 -176 -2 -10 -9 -35 -15 -54 -6 -19 -13 -53 -16 -75 -9 -69 -12
-84 -18 -94 -4 -5 -2 -12 3 -15 5 -3 6 -21 1 -40 -4 -19 -6 -37 -4 -39 2 -2 6
-30 9 -63 8 -87 41 -199 81 -275 76 -144 231 -289 391 -364 43 -21 86 -41 95
-46 17 -8 147 -43 203 -54 155 -29 393 -25 555 11 28 6 28 6 90 23 25 7 54 15
64 17 11 2 24 8 30 14 5 5 17 10 25 10 23 0 231 106 265 135 16 14 32 25 36
25 4 0 42 34 85 75 43 42 79 74 81 73 1 -2 4 -16 6 -33 6 -50 53 -138 99 -185
132 -135 307 -184 649 -183 74 0 171 6 215 13 44 7 87 14 95 15 75 9 230 74
321 135 74 50 198 171 219 215 8 17 18 32 21 35 26 21 84 196 68 206 -5 3 -7
10 -4 15 4 5 -1 9 -9 9 -13 0 -29 -15 -31 -30 -1 -3 -5 -25 -9 -50 -31 -171
-245 -214 -300 -60 -5 14 -10 479 -12 1045 -3 984 -4 1120 -15 1140 -3 6 -6
26 -8 45 -8 95 -99 308 -173 403 -43 55 -138 152 -138 141 0 -5 -5 -1 -11 9
-5 9 -38 35 -72 57 -34 21 -67 44 -74 50 -7 5 -19 10 -27 10 -8 0 -17 4 -20 9
-16 26 -296 119 -411 136 -16 2 -39 6 -51 9 -26 5 -115 17 -174 23 -52 5 -497
12 -502 8z m201 -1839 c20 -3 45 -8 56 -11 20 -6 20 -14 20 -641 l0 -635 -25
-19 c-72 -56 -196 -74 -278 -42 -47 18 -141 90 -142 108 0 6 -7 17 -15 24 -23
19 -61 111 -82 200 -2 8 -6 35 -9 60 -3 25 -7 59 -9 75 -12 87 -7 312 11 450
13 103 82 295 106 295 4 0 8 5 8 10 0 20 64 80 109 102 69 33 133 39 250 24z"/>
<path d="M26276 13163 c-2 -2 -88 -15 -118 -18 -10 -1 -21 -4 -24 -8 -4 -4
-14 -7 -21 -7 -21 0 -147 -52 -151 -62 -2 -4 -8 -8 -14 -8 -14 0 -95 -58 -147
-105 -111 -102 -220 -295 -237 -420 -2 -16 -6 -41 -9 -55 -7 -34 -7 -188 0
-225 7 -37 14 -72 21 -105 11 -50 69 -176 110 -235 153 -224 366 -341 634
-349 49 -2 81 1 192 19 42 6 158 50 203 76 94 55 157 109 238 202 68 80 140
236 163 353 10 51 10 247 1 301 -21 114 -96 279 -157 344 -8 8 -27 29 -41 45
-62 70 -150 137 -224 171 -22 10 -43 22 -46 26 -3 5 -9 8 -13 7 -3 0 -35 8
-70 19 -34 11 -92 23 -127 26 -63 7 -159 12 -163 8z"/>
</g>
</svg>
